<svg width="20" height="21" viewBox="0 0 20 21" fill="none" xmlns="http://www.w3.org/2000/svg">
<path d="M7.50008 18.8333C7.96032 18.8333 8.33341 18.4602 8.33341 18C8.33341 17.5397 7.96032 17.1666 7.50008 17.1666C7.03984 17.1666 6.66675 17.5397 6.66675 18C6.66675 18.4602 7.03984 18.8333 7.50008 18.8333Z" stroke="#282828" stroke-width="1.43015" stroke-linecap="round" stroke-linejoin="round"/>
<path d="M16.6666 18.8333C17.1268 18.8333 17.4999 18.4602 17.4999 18C17.4999 17.5397 17.1268 17.1666 16.6666 17.1666C16.2063 17.1666 15.8333 17.5397 15.8333 18C15.8333 18.4602 16.2063 18.8333 16.6666 18.8333Z" fill="#282828" stroke="#282828" stroke-width="1.43015" stroke-linecap="round" stroke-linejoin="round"/>
<path d="M0.833252 1.33337H4.16658L6.39992 12.4917C6.47612 12.8754 6.68484 13.22 6.98954 13.4653C7.29424 13.7106 7.6755 13.8409 8.06658 13.8334H16.1666C16.5577 13.8409 16.9389 13.7106 17.2436 13.4653C17.5483 13.22 17.757 12.8754 17.8333 12.4917L19.1666 5.50004H4.99992" stroke="#282828" stroke-width="1.43015" stroke-linecap="round" stroke-linejoin="round"/>
</svg>
