<svg width="40" height="40" viewBox="0 0 40 40" fill="none" xmlns="http://www.w3.org/2000/svg">
<g id="favorite_border">
<path id="Vector" d="M18.8903 9.42901L20.0007 10.7329L21.111 9.42901C22.6599 7.61009 25.0422 6.45852 27.5007 6.45852C31.8286 6.45852 35.209 9.83893 35.209 14.1668C35.209 16.8378 34.0209 19.3752 31.6322 22.2956C29.2268 25.2365 25.7587 28.3849 21.4377 32.3032L21.4356 32.3051L19.9969 33.6148L18.5648 32.3209C18.5643 32.3205 18.5638 32.3201 18.5633 32.3196C14.2427 28.3933 10.7749 25.2411 8.36937 22.2981C5.98038 19.3753 4.79232 16.8378 4.79232 14.1668C4.79232 9.83893 8.17273 6.45852 12.5007 6.45852C14.9591 6.45852 17.3414 7.61009 18.8903 9.42901ZM9.16767 22.6026C11.5363 25.3702 14.8988 28.4155 18.8284 31.9736L18.9695 32.1147L20.0007 33.1459L21.0318 32.1147L21.1729 31.9736C25.1025 28.4155 28.465 25.3702 30.8336 22.6026C33.1934 19.8452 34.7923 17.1135 34.7923 14.1668C34.7923 10.0281 31.6394 6.87518 27.5007 6.87518C24.7263 6.87518 21.9942 8.43639 20.6471 10.8085H19.3658C18.0088 8.43969 15.2792 6.87518 12.5007 6.87518C8.3619 6.87518 5.20898 10.0281 5.20898 14.1668C5.20898 17.1135 6.80787 19.8452 9.16767 22.6026Z" stroke="#A9A9A9" stroke-width="2.91667"/>
</g>
</svg>
