<svg width="20" height="21" viewBox="0 0 20 21" fill="none" xmlns="http://www.w3.org/2000/svg">
<path d="M15.8796 3.34763C16.4359 3.5781 16.9412 3.91589 17.3668 4.34172C17.7927 4.76735 18.1305 5.27271 18.3609 5.82893C18.5914 6.38514 18.71 6.98132 18.71 7.58339C18.71 8.18546 18.5914 8.78164 18.3609 9.33785C18.1305 9.89407 17.7927 10.3994 17.3668 10.8251L16.4835 11.7084L10.0002 18.1917L3.51685 11.7084L2.63351 10.8251C1.77377 9.96531 1.29077 8.79925 1.29077 7.58339C1.29077 6.36753 1.77377 5.20147 2.63351 4.34172C3.49326 3.48198 4.65932 2.99898 5.87518 2.99898C7.09104 2.99898 8.2571 3.48198 9.11685 4.34172L10.0002 5.22506L10.8835 4.34172C11.3091 3.91589 11.8145 3.5781 12.3707 3.34763C12.9269 3.11716 13.5231 2.99854 14.1252 2.99854C14.7273 2.99854 15.3234 3.11716 15.8796 3.34763Z" stroke="#282828" stroke-width="1.43" stroke-linecap="round" stroke-linejoin="round"/>
</svg>
