<svg width="22" height="14" viewBox="0 0 22 14" fill="none" xmlns="http://www.w3.org/2000/svg">
<path d="M11.9825 14C4.46596 14 0.178638 8.74474 0 0H3.76515C3.88882 6.41842 6.66459 9.13714 8.86321 9.6977V0H12.4085V5.53553C14.5796 5.2973 16.8607 2.77477 17.6302 0H21.1755C20.8855 1.43908 20.3075 2.80165 19.4776 4.0025C18.6477 5.20335 17.5837 6.21663 16.3523 6.97898C17.7269 7.67555 18.941 8.6615 19.9145 9.87175C20.888 11.082 21.5988 12.489 22 14H18.0974C17.7373 12.6876 17.0054 11.5128 15.9934 10.6228C14.9814 9.73284 13.7343 9.16727 12.4085 8.997V14H11.9825V14Z" fill="#282828"/>
</svg>
